<svg version="1" xmlns="http://www.w3.org/2000/svg" width="997.333" height="997.333" viewBox="0 0 748.000000 748.000000"><path d="M687 206.6c-8 .7-15.2 1.3-16.1 1.3-1.1.1-2.9 4.3-6.4 15.5l-4.8 15.5-7.1 1.1c-14.1 2.3-12.8 1.1-15.3 13.6-1.2 6-2.2 12.3-2.2 14.1-.1 1.7-.6 3.5-1.2 3.8-.7.5-1-4.8-.8-17.6l.2-18.4-2.4.3c-7.3 1-35.7 6.4-37.6 7.2-1.7.7-2.3 2.1-2.8 6.5-.4 3.1-1.3 5.8-1.9 6-.6.2-13.7 2-29.1 4.1-23.1 3-28.2 3.9-29.3 5.4-1.3 1.8-1.5 1.7-6-.3-4.2-2-6.3-2.2-19.7-2.1-11.5.1-17.5.6-25.5 2.3-7.1 1.5-10.6 1.9-10.8 1.1-1-3-7.4-10.9-11.1-13.7-10-7.7-26.6-8.1-50.1-1.3-5.2 1.6-15.1 3.8-22 4.9-6.9 1.2-14.8 2.6-17.6 3.2l-5.1 1-.9 5.6-.9 5.7-13 2.2c-18 3.2-17.6 3.2-16.2-1.1.6-1.9.8-3.7.6-3.9-.2-.3-8.9.9-19.2 2.6-15.2 2.4-19.1 2.7-20.3 1.7-.8-.7-1.2-1.9-.9-2.7.3-.8-.2-1.6-1.4-1.9-1.7-.4-8.9-9.1-37.1-44.1-4-5-7.8-9.2-8.3-9.2-1.8 0-20.3 8.3-33.7 15.1-25.4 12.8-46 27-62.3 42.8-10.3 10-24.3 27.4-23.3 29 .4.5-1.9 5.7-4.9 11.4-8.2 15.5-16.6 22.2-31.3 24.9l-5.9 1.1-9.6-5.9c-5.2-3.2-12.3-7.7-15.7-9.9-16-10.2-26.6-14.8-41.7-18.1-13.2-2.8-13.2-2.1-.1 11.9 24.1 25.8 70.6 81.7 95.6 114.8 3.6 4.8 4.9 5.8 9.9 7.3 15.6 4.8 48.2 25.2 64.5 40.4l4.6 4.3 8.4-1.2c4.6-.6 11.5-2.2 15.3-3.5 6.4-2.2 8.8-2.4 29.5-2.7 19.3-.2 23-.4 25.7-2 4.7-2.5 6.6-6.9 7.1-16.4.6-10.7-.4-16.7-3.3-20.1l-2.3-2.7 2.1-3c1.6-2.1 2.3-4.9 2.5-9.7.3-3.8.8-6.8 1.3-6.8s.9 13.4.9 30.5V477h26v-33.4c0-21 .4-33.7 1-34.1.6-.4 1.1 11.3 1.2 33.2l.3 33.8H328c20.9 0 21.6-.1 24.8-2.3 5.6-4 6.4-6.8 6-20.8-.3-11.8-.4-12.5-2.9-15l-2.7-2.6 2.4-3.6c4.1-6 3-19.1-2.1-25.3-2.7-3.2-6.3-5.5-10.3-6.3-2.9-.7-3.2-1.1-3.2-4.6v-3.8l13.3-3.2c19.2-4.6 31.5-6.9 46.7-8.9l13.5-1.7.7-6.5c.4-3.5 1.1-9.8 1.5-13.9.7-7 1-7.6 3.8-9 6.4-3.2 12.8-7.3 18-11.6 3-2.4 5.6-4.4 5.8-4.4.2 0-1.6 10.2-4 22.7-2.4 12.6-5.2 27.5-6.2 33.3l-1.8 10.5-16.6.3-16.7.2v57h-11v-57.1l-13.2.3-13.3.3.3 38 .2 38 39 .3 39 .2v-20h-15v-9.9l6.2-.3c6.1-.3 6.3-.4 6.8-3.3l.6-3 .8 3c1.4 5.7 7.8 15.7 13.8 21.7 14.5 14.5 33.2 21.7 49.3 18.9 5.8-1 6.9-1 7.9.4s2 1.3 10.1-.4c5-1.1 11.5-2.2 14.5-2.6l5.5-.7 3 4.1c1.7 2.2 3.4 4.1 3.9 4.1s3-1.3 5.6-2.9c6.7-4.2 13.3-6.2 22.5-6.9l8-.7.5-6.8c.3-3.8.3-7.1.1-7.3-.2-.2-3-.4-6.1-.4h-5.6l-1.7-4.8c-1.7-4.8-5.8-23.4-5.2-24 .1-.2 1.3 1.3 2.5 3.3 1.2 1.9 4.2 4.7 6.6 6.1 3.8 2.3 5.3 2.6 10.8 2.2 7.8-.5 13.5-3.9 17.4-10.3 1.5-2.5 3-4.5 3.5-4.5.4 0 .7 1.5.7 3.2 0 5.1 2.8 18.5 5.6 27.1 1.4 4.3 2.4 8 2.3 8.1-.2.2-2.5 1.3-5.1 2.6l-4.7 2.3 2.2 3.9c1.2 2.1 3.1 5 4.2 6.4l2.1 2.6 5.9-3c8.4-4.2 12.4-5.1 25-5.3 11.5-.2 15.2.6 21.5 5.1 1.5 1.1 3.2 2 3.7 2s2.4-2 4.3-4.5c2.9-3.9 3.9-4.5 7-4.5 5.6 0 14.9 2.8 20.2 6 2.7 1.7 5.2 3 5.6 3 .4 0 2.7-2.5 5.1-5.6 3.5-4.5 4.1-5.8 3-6.5-.8-.5-2.9-1.9-4.7-3-2-1.3-3.1-2.7-2.8-3.5 3.6-9.3 8.8-35.9 10.6-53.3 1.7-17.8 1.1-43.1-1.5-55.2-.5-2.3-.1-2.7 5-4.8 4.4-1.8 5.5-2.7 4.9-4-1.7-4.2-1.4-5.2 3.2-10.8 6.8-8.3 10.8-17.3 11.2-25.3.7-11.5-4.1-18-14.8-20-2.9-.6-5.5-1.1-5.6-1.3-.2-.1 4.6-2 10.6-4.1l10.9-3.8.7-6.5c1.6-15.1-1.2-25.6-8.3-31-3.2-2.5-4.5-2.8-10.9-2.8-6.5 0-8 .4-15.3 4.2-5.3 2.8-8.1 3.8-8.1 2.9 0-3.1 10.6-34.5 15.5-45.9.6-1.5 0-1.7-6.1-1.6-3.8.1-13.4.7-21.4 1.5zm18.5 6.1c-5.1 12.6-11.9 34.1-13.6 42.6-1.2 6.6-3.6 8.3-12.3 9.1-11.4 1-11.2.8-13.4 9.4-4.2 16.1-7.3 28.9-8.2 33.2-1.8 8.7-6 35.7-6 38.2 0 2.3-.5 2.6-5 3.2-2.8.4-7.2.4-9.9 0-4.8-.6-4.9-.6-5.5 2.2-.3 1.6-.7 5-.8 7.6-.1 4.6-.2 4.7-4.2 5.7-2.2.5-4.1.9-4.2.8-.2-.3-7.3-19.2-10.1-26.7-3.8-10.3-4.3-11.4-5.3-10.4-.8.8-2.1 8.2-5.1 29.4-.6 4.1-1.2 7.8-1.5 8.1-.2.4-1.8.9-3.6 1.3-1.8.3-6.5 1.6-10.5 2.7-6.4 1.9-7.2 2.5-7.5 4.8-.2 2.1-.9 2.7-3.3 2.9-8.5.8-33.5 4.6-37.2 5.7-5.1 1.5-5 1.8-2.6-9 1.4-6.6 1.9-7.5 3.5-6.9 1 .3 3.7.3 5.9-.1l4.1-.7-.4-7.3-.3-7.3 11.5-1.6c18.7-2.7 18.8-2.7 19.2-1.4.2.6.4-.6.4-2.8 0-2.1.3-6.3.8-9.3l.8-5.4-3.8.7c-2.2.3-9.2 1.6-15.6 2.9-11.6 2.2-11.8 2.2-12.4 5.2-2 9.9-2.2 10.2-6.5 10.9-4.1.7-18.5-.9-20.7-2.3-.7-.4-.8-2.1-.2-5.1.5-2.5 2.1-11 3.5-19s3.7-19.9 5.1-26.5c1.3-6.6 3-15.8 3.7-20.5 1.2-8.4 1.2-8.5 4.2-8.8 1.7-.2 10.9-1.4 20.5-2.7 9.6-1.3 21.6-2.9 26.7-3.5l9.1-1.3 1.1-6c.6-3.3 1.4-6.4 1.8-6.7.5-.4 6.4-1.7 13.3-2.9s13.2-2.4 14.1-2.7c1.4-.4 1.7 2.5 2.2 26.3.8 32 2.5 45.9 5.2 43.1.3-.3 1.4-5.4 2.5-11.4 1-6 2.3-13.2 2.9-15.9.5-2.8 2.2-11.3 3.6-19 1.4-7.7 2.8-14.9 3-16.1.4-1.8 1.7-2.3 8.2-3.4 12.8-2 11.5-.4 18.3-22.7l3-10.1 10.8-.7c5.9-.3 11.6-.7 12.7-.9 1.1-.2 3.5-.4 5.4-.5 2.8-.1 3.2.2 2.6 1.6zm24.8 40.4c3.3 2.5 5.7 10.3 5.7 18.3 0 10.1.1 9.9-12.1 14.4-5.9 2.1-11.1 3.7-11.4 3.4-.3-.3-.5-1.3-.5-2.3 0-3-3.7-4.3-8-3-5 1.5-12 9-12 13 0 4.7 1.9 5.5 11.3 4.5 13.9-1.4 22.8-1.1 25.9 1 7.4 4.9 5.7 19.8-3.8 32.8-2.7 3.6-4.1 4.7-5.5 4.3-1-.3-3.6.3-5.8 1.4-4.9 2.5-20.4 7.1-24 7.1-2 0-3-.9-4.5-3.9-1-2.2-1.5-4.4-1.2-4.9.8-1.3-3.8-.1-8.2 2.2l-3.2 1.7 2.2-4.6c1.9-3.8 2.6-4.5 4.3-4 1.1.4 4.7.9 8 1.2 12.1 1 26.6-8.2 21.3-13.5-1.6-1.6-11.8-1.5-19.8.3-23.9 5.3-31.2-4.1-20.1-25.9 8.8-17.3 33.2-40.6 46.6-44.5 5.6-1.7 12-1.3 14.8 1zm-283.4.5c6.6 1.9 12 7.2 15.2 14.8 2.1 5.3 2.6 5.7 4.9 5.2 17.4-4.2 29.2-5.7 40.5-5.4 13.5.4 18.5 2 21 6.9 3.6 6.8.3 21.9-6.8 31.6-4.4 5.8-19.1 20.3-20.8 20.3-1.6 0-1 2.4 2.1 8.3 2.4 4.7 2.6 5.6 1.1 4.8-1.5-.9-2.4-.1-5.9 5.3-2.3 3.4-4.2 6.5-4.2 6.9 0 .3 2.3 1.8 5 3.3 2.9 1.6 5 3.4 4.9 4.3 0 .9-1 7.2-2.2 14-2.1 11.5-2.4 12.5-5.3 14.8l-3.2 2.4-5-12.3c-2.9-6.8-7.1-17-9.5-22.7-2.4-5.8-4.8-10.6-5.4-10.8-.6-.2-1.3 1.3-1.6 3.4-2 13.4-5.9 36.8-6.1 37.1-.6.5-26.1 7.1-26.4 6.7-.4-.4 13.4-74.3 14.3-76.8 1.3-3.2-1.3-1.7-5.2 3.1-7.7 9.7-18.8 18.5-31.1 24.6l-6.9 3.6-1.3 13c-.7 7.1-1.5 13-1.9 13-6.4.1-45.9 7.4-56.1 10.4-3.2 1-5 1.1-5 .4 0-1.1 8.3-46.1 10.5-57.3.8-3.9 2.3-12 3.5-18 1.1-6.1 3.3-18.2 5-27 1.6-8.8 3-16.3 3-16.8 0-.4 1.2-.7 2.7-.7 1.6 0 8.1-.9 14.6-2.1 6.5-1.2 12-1.9 12.2-1.7.2.1-2.5 11.5-6 25.3-6.7 26.4-14 60.3-13.1 61.2.2.3 3.3.1 6.7-.4l6.2-.8 4.9-25.5c2.6-14 6.1-33.2 7.8-42.5 1.7-9.4 3.3-18 3.5-19.1.4-1.6 1.5-2.3 4.2-2.8 2.1-.4 6.5-1.3 9.8-2.1 8.2-1.8 19.1-1.8 25.4.1zM228 259c6.6 1.3 13.9 5.8 17.5 10.9 4 5.9 2.6 9.5-8 20.1-5.3 5.3-8.8 8.1-9.3 7.4-2.5-3.8-10.9-4.5-16.2-1.3-12.5 7.6-27.1 33.9-27 49 .1 9 7.7 17.1 16.3 17.1 5.5 0 9.6-2.1 15.7-7.8l4.7-4.4 2.8 9.7 2.9 9.6-4 3.5c-14.7 12.9-30.9 17.3-44.8 12.2-5.6-2.1-12-8-14.9-13.7-2.5-4.8-5.5-15.4-6.2-21.8-1.4-13.2 3.9-36 11.7-50.5 13.7-25.2 31.7-39.4 51.9-40.9.9 0 4 .4 6.9.9zm448.6 16.2c-2.5 2.9-4.6 5.6-4.6 6 0 .5-.4.8-.9.8-.6 0-.7-1.1-.1-2.8.4-1.5 1.1-3.9 1.4-5.4.6-2.6 1.4-3 7.4-3.7.8 0-.7 2.3-3.2 5.1zm-398.1 17.9c-5.8 22.2-8.8 35.9-8.1 36.7.4.3 3.6 0 7.2-.7 5.1-1.1 6.8-1.1 7.4-.2.4.7.7.1.8-1.6 0-1.5.7-6.4 1.6-10.8.8-4.4 2.6-14.2 4-21.9 1.4-7.6 2.6-14 2.8-14.1.5-.5 29.3-5.2 29.7-4.9.2.2-.1.9-.7 1.6-.5.7-1.3 3.1-1.7 5.3-.4 2.2-2.4 11-4.6 19.5-7.2 29.1-9.4 39.9-13.3 65.2-1.4 8.7-2.8 16.2-3.1 16.8-.3.5-1.4 1-2.3 1-.9 0-6.8 1.3-12.9 2.8-6.2 1.6-11.3 2.4-11.3 2 0-.5 1.6-9.8 3.6-20.9 2-11 3.4-20.2 3.1-20.5-.6-.6-13.9 1.7-14.9 2.5-.4.3-1.7 7.8-2.9 16.6s-2.3 16.1-2.4 16.3c-.1.1-6.4 1.7-13.9 3.6l-13.7 3.3.5-2.6c.6-2.6 4.4-23.1 7.2-38.6 1.5-8.8 2.8-15.8 7.4-40.5 1.7-9.1 3.6-19.3 4.2-22.6l1.1-6.2 14.6-2.4c8-1.3 14.7-2.4 14.9-2.3.1.1-1.8 8-4.3 17.6zm79.4-12.4c-1.6 4-10.5 39.5-14 55.3-3.3 15.1-9.9 53.1-9.9 57.1 0 2.3-.6 2.7-7.2 4.2-9.3 2.2-19.8 2.3-19.8.3 0-1.3 5.7-32.3 10.9-59.1 1.1-5.5 3.9-20.1 6.2-32.5 2.3-12.4 4.3-22.6 4.4-22.8.4-.4 25.6-5 28.2-5.1 2.1-.1 2.2.1 1.2 2.6zm348.8 12.1c-.2 2.3-.8 2.8-4 3.3-4.7.8-4.9-1-.5-4.5 3.7-2.9 4.8-2.6 4.5 1.2zM518 330.1c-1.1 5.7-2 11.4-2 12.6 0 4-1.5 2.5-5.3-5.3l-3.8-7.7 3.8-3.1c2-1.7 4.8-4.1 6.2-5.4 1.3-1.2 2.6-2.1 2.8-1.9.2.2-.6 5.1-1.7 10.8zm148-2.9c1.9.9 4.3 1.9 5.3 2.2 1.6.5 1.4 1.4-2.5 8.8-3.5 6.7-4.8 8.4-7.2 9-1.7.4-3.2.5-3.4.3-.7-.7 3-22.6 3.7-22.3.3.2 2.2 1.1 4.1 2zm31.5 1.3c-4.3 2-11.5 2.9-12.7 1.7-1.1-1.1 6.8-2.9 12.7-3h3l-3 1.3zM574 338.7c-.1 2.3-2.5 3.4-9.9 4.4-4.5.6-8.5.8-8.8.5-1.4-1.3 1.7-2.7 8.8-4 9.2-1.7 9.9-1.8 9.9-.9zm144 9.3c0 .4-2.3 1.7-5.1 2.9-3.8 1.7-4.9 2.6-4.5 3.9 1.1 3.4 2.6 16.4 3.2 27.5.7 11.7-.7 32.1-3.1 43.7l-1.3 6.5-.1-7.2c-.1-6.1-.4-7.4-2.1-8.3-2.8-1.5-9.5-8.1-10.6-10.5-.6-1.5-1-.4-1.2 4.5-.4 9.1-2.2 10.2-2.2 1.4 0-10.4-4.4-46.3-6.6-53.7-.4-1.3-1.6-1.7-5.5-1.7-3.4 0-4.9-.4-4.9-1.4 0-.9 3.1-1.6 11.5-2.5 10.6-1 26.7-5.1 28.9-7.2 1-.9 3.6.7 3.6 2.1zm-196 5.1c3.6 1 9.4 2 13 2.2 4.9.4 6.6.9 6.8 2.1.3 1.3-.6 1.6-4.7 1.6-2.7 0-5.3.4-5.6 1-1.1 1.7-5.4 24.7-7 36.7-.8 6.5-1.9 18.2-2.4 26.1-.8 14.3-2.1 20.2-2.1 10.1 0-5.8-.4-6.8-3.5-8.5-1.1-.6-2.6-2.2-3.2-3.5-.7-1.3-1.3-2-1.3-1.4 0 .7-.3.7-.8 0-.4-.6-1.6-1.5-2.7-2.1-4.6-2.5-2.3-47.6 3.1-61.8.4-1.1-.9-2.1-4.5-3.7-5.4-2.3-5.8-2.8-4-4.6.9-.9 2.6-.5 6.8 1.4 3.1 1.4 8.5 3.3 12.1 4.4zm158.7-5.5c.2.6-1.9 2.1-4.7 3.2-4 1.7-5 2.5-4.6 3.9 3.3 11.1 4.1 42.4 1.6 62.8-1 8.6-1.6 11.1-2.1 9-.3-1.7-.4-4.3-.1-5.8.3-1.5.1-2.7-.4-2.5-1.4.4-4.9-2.7-11.9-10.5l-2-2.2-.3 5.2c-.4 7.4-2.2 6.6-2.2-1 0-7.4-2.4-28.6-4.8-42.3l-1.7-9.9-5.3-.3c-4.2-.2-5.3-.6-5-1.9.2-1.2 2-1.6 8.3-1.9 9.1-.4 19.9-2.6 27.1-5.4 5.2-2.1 7.5-2.2 8.1-.4zm-68.7 6.9c.7 2.2 2.5 6.8 4 10.1l2.8 6.1-5.9.7c-10.1 1-14.9 5.1-14.9 12.6 0 4 1.3 6.6 5.8 11.2 3.1 3.2 3.3 3.8 1.7 3.8-1.1.1-3.7.7-5.7 1.4-3.4 1.2-4.2 1.1-8.4-1-5.2-2.6-12.2-3.1-18.8-1.3-3.5 1-4.1.8-6.5-1.5-1.5-1.4-3-2.6-3.3-2.6-.3 0-2.9 1.6-5.8 3.5-5.4 3.6-14.3 6.8-22.4 8l-4.7.7.7-6.3c1.2-10.7.6-10.2 14.8-12.8 6.9-1.3 18.5-3.1 25.8-4l13.3-1.6.5-2.9c.5-2.8 1.1-3.1 11-6l10.5-3.1.6-4.5c.4-2.5 1-7.1 1.4-10.4.7-6.3 1.6-6.3 3.5-.1zm-134.9 13.2c3.8 10.4 13.3 32.3 14 32.3.5 0 2.4-1.4 4.2-3 1.9-1.7 3.7-3 4.1-3 .3 0 .6 2.7.6 6s-.2 6-.5 6-3.1-1.3-6.3-2.8c-8.5-4.3-14.7-5.7-24.7-5.7-7.5 0-9.9.5-14.5 2.6-6.9 3.2-11.5 7.1-14 11.8l-1.9 3.6-.1-6.7c0-3.6-.2-7.2-.5-8-.4-1 3.8-2.4 16.2-5.6 9.3-2.4 17.1-4.7 17.5-5 .5-.6 3.8-20.9 3.8-24 0-2.1 1-1.3 2.1 1.5zm166.3.5c1.7 8 2.8 16 2.3 16.4-.3.3-.8-.5-1.2-1.8-1.2-3.7-7.1-10.4-10.5-11.8-1.6-.7-3-1.6-3-1.9 0-.7 6.8-2.7 10.2-3 1.1 0 1.9.8 2.2 2.1zm-16.4 2.7c0 1.3-2.1 1.9-4.4 1.3-2-.5-2-.5 0-1.3 2.7-1.1 4.4-1.1 4.4 0zm56.9 25.3c2 24.5 1.1 46-2.6 60.5l-1.5 6.3h-8.7l1.5-5c5.5-18.6 8.9-48.5 8.2-72.5-.5-15.2-.4-15.7.8-9.2.7 3.7 1.8 12.7 2.3 19.9zm-45.8-13.6c2.6 5.5 2 8.5-2.4 11.8-2.3 1.7-4.3 2.1-10.5 2.1-6.6 0-8.4-.4-12.4-2.7-5.9-3.5-8.8-7.2-8.8-11.3 0-4.9 2.6-6.6 10.4-6.7 5.5-.1 7.1.3 10.5 2.5 6.3 4.2 6.9 9.9 1.2 11.2-3.4.7-9-1.8-9.9-4.5-.4-1.1 0-1.1 2.1.3 4.6 3 7.4 1.8 6.3-2.7-1.1-4.5-10-6.2-13.7-2.5-2.5 2.5-1.9 6.2 1.6 9.8 2.6 2.7 10.9 5.1 14.8 4.4 2.9-.6 7.7-5.5 7.7-7.8 0-2.4-1.9-6.4-4-8.5-1.1-1.1-1.8-2.5-1.5-3.1 1.1-1.7 6.2 2.9 8.6 7.7zm9.2 13.6c.5 5.2-.1 6-2.1 2.7-1-1.6-1.1-2.8-.1-5.7 1.4-4.1 1.5-3.8 2.2 3zM300 398c0 1.1-.7 2-1.5 2-1.8 0-1.9-1.2-.3-2.8 1.6-1.6 1.8-1.5 1.8.8zm263.9 3.4c.9 1.1.4 1.8-2.4 3.5-3.1 1.8-3.5 2.5-3.5 6.1v4.1l5.8-5.9c5-5.3 6.4-6.2 11.4-7.3 9.9-2.1 18.2 2.1 22.7 11.6 4 8.5 1.9 17.2-5.6 23.4-7 5.8-17.8 3.5-21.7-4.6-1.9-3.9-2.1-10.2-.5-13.7 1.4-2.9 6.5-5.6 10.7-5.6 7.2 0 11.9 9.9 6 12.7-1.4.7-3.4 1-4.3.7-1.6-.6-1.5-.9.5-2.4 3.3-2.5 2-5-2.6-5-7.2 0-10.1 6.8-4.6 11 2.3 1.8 3.7 2.1 8.6 1.8 4.9-.4 6.3-.9 8.3-3.2 5.9-6.9-1.2-19.6-11-19.6-7.3 0-11.9 1.9-16.7 6.9-5.2 5.3-7.3 10.9-7.2 19.1 0 4.2-.2 4.9-.8 3-.4-1.4-.8-4.2-.9-6.2-.1-2.6-.5-3.6-1.3-3.3-.7.3-2.6-1.1-4.2-3s-3.3-3.5-3.8-3.5-2.2-1.5-3.9-3.2l-2.9-3.2-.1 5.9c-.1 4.9-.3 5.4-.9 3-.4-1.7-.8-5-.9-7.4l-.1-4.4-4.5.5c-8.4 1-4.8-1.6 5.6-4 5.7-1.4 12.8-3.8 16.2-5.7 7.3-3.9 7.1-3.9 8.6-2.1zm57.7 2.1c6.2 1.9 9.1 1.9 14.4 0 3.3-1.2 4.6-1.2 5.7-.3 1.2 1 .9 1.5-1.9 2.9-1.8 1-4.1 1.8-5 1.9-.9 0-1.9.8-2.3 1.9-1.3 4.2-3.5 19-3.6 24.6-.1 5.2-.2 5.6-.9 2.5-1.2-5.6-2.8-9-4.3-9-.8 0-3.3-2-5.5-4.4-3.3-3.6-4.3-4.2-5.2-3.1-.7.8-.9 1.8-.7 2.3.3.4.2 1.4-.4 2.2-.5 1-.9-2.1-.9-8.8v-10.3l-4.6.3c-6.1.4-6.8-1.6-1.2-2.9 6.3-1.5 10.9-1.5 16.4.2zm-141.9.1c-.3.3-1.2.4-1.9.1-.8-.3-.5-.6.6-.6 1.1-.1 1.7.2 1.3.5zm9.9 3.4c3.5 1.7 8.4 4.9 11 7 5.9 5.2 4.6 5.1-2.3-.1-3-2.2-8.2-5.3-11.6-7-3.4-1.6-5.6-2.9-4.8-2.9.7 0 4.2 1.4 7.7 3zm-5.5 3.7c1.3 1.6 1.2 1.7-.3.4-1-.7-1.8-1.5-1.8-1.7 0-.8.8-.3 2.1 1.3zM648 423.2c0 12.7-1.7 28-4 36-.8 2.7-1.7 3.8-3 3.8-4.1 0-6.7-26.8-3.9-42.5 1-5.8 1.2-6.2 5.2-8.2 2.3-1.1 4.5-2.1 5-2.1.4-.1.7 5.8.7 13zM488.5 414c1 1.1 1.6 2 1.3 2-.3 0-1.3-.9-2.3-2-1-1.1-1.6-2-1.3-2 .3 0 1.3.9 2.3 2zm-11.6 1c4.8 2.4 12.7 11.1 16.4 18.2l2.9 5.3-3.8-4.4c-4.2-4.9-12.2-9.1-17.2-9.1-1.8 0-4.9.7-6.9 1.5-1.9.8-3.7 1.5-3.9 1.5-.2 0-.4-2.2-.4-4.9 0-3.4.6-5.6 2.1-7.5 2.5-3.1 5.6-3.3 10.8-.6zm-40.9 5.9c0 .5-.3 2.3-.6 4-.6 3-.8 3.1-6 3.1H424v-8h6c3.3 0 6 .4 6 .9zm60.5 2.7c.9 1.5 1.2 2.3.6 2-1.1-.7-3.5-4.6-2.8-4.6.3 0 1.2 1.2 2.2 2.6zm35.9 3.6c1 10.3 5.2 25 9.7 34.8 4.1 8.9 4.2 9.3 2.4 10.6-2.9 2.1-3.4 1.7-2.8-2.1l.6-3.5h-5.6c-4.3 0-5.7-.4-6.2-1.8-.4-.9-1-11.3-1.3-23-.4-18.3-.2-21.2 1-21.2 1.1 0 1.7 1.7 2.2 6.2zm138.3 5c-.3.8-.6.5-.6-.6-.1-1.1.2-1.7.5-1.3.3.3.4 1.2.1 1.9zm-42 12c-.3.7-.5.2-.5-1.2s.2-1.9.5-1.3c.2.7.2 1.9 0 2.5zm-378 11c-.2 1.8-.4.4-.4-3.2s.2-5 .4-3.3c.2 1.8.2 4.8 0 6.5z"/><path d="M675 216.1c0 .5.5.7 1 .4.6-.3 1-.8 1-1.1 0-.2-.4-.4-1-.4-.5 0-1 .5-1 1.1zM691.1 245.6c0 1.1.3 1.4.6.6.3-.7.2-1.6-.1-1.9-.3-.4-.6.2-.5 1.3zM687.5 248c.3.5.8 1 1.1 1 .2 0 .4-.5.4-1 0-.6-.5-1-1.1-1-.5 0-.7.4-.4 1zM599.1 253.6c0 1.1.3 1.4.6.6.3-.7.2-1.6-.1-1.9-.3-.4-.6.2-.5 1.3zM570.9 292.5c-5.3.6-10.1 1.5-10.7 1.8-.9.6-5.2 16.6-5.2 19.4 0 .5 6.9-.4 15.4-2.1l15.3-3 1.3-7c.6-3.9 1.4-7.9 1.6-8.9.5-1.4-.1-1.7-3.8-1.6-2.4.1-8.6.7-13.9 1.4zm10.1 6.7c0 1.3-.4 2.8-.8 3.4-.7 1.2-16.1 4.8-16.9 4-.2-.2 0-1.9.4-3.7.9-3.3 1.1-3.4 8.4-4.5 4.1-.7 7.7-1.2 8.2-1.3.4 0 .7.9.7 2.1zM591.5 292.1c-.4.6-.5 1.2-.2 1.5.2.3.7-.2 1-1.1.7-1.7.1-2-.8-.4zM636 309.1c0 .5.5.7 1 .4.6-.3 1-.8 1-1.1 0-.2-.4-.4-1-.4-.5 0-1 .5-1 1.1zM524.8 346.7c.7.3 1.6.2 1.9-.1.4-.3-.2-.6-1.3-.5-1.1 0-1.4.3-.6.6zM693.9 268.7c-1.3 1.7-1.3 1.7.6.3 1.1-.8 2.2-1.6 2.4-1.7.2-.2 0-.3-.6-.3s-1.7.8-2.4 1.7zM689.9 272.7c-1.3 1.6-1.2 1.7.4.4 1.6-1.3 2.1-2.1 1.3-2.1-.2 0-1 .8-1.7 1.7zM691 275c-.9.6-1 1-.3 1 .6 0 1.5-.5 1.8-1 .8-1.2.4-1.2-1.5 0zM731 280c-.9.6-1 1-.3 1 .6 0 1.5-.5 1.8-1 .8-1.2.4-1.2-1.5 0zM690 288.1c0 .5.5.7 1 .4.6-.3 1-.8 1-1.1 0-.2-.4-.4-1-.4-.5 0-1 .5-1 1.1zM688 295.1c0 .5.5.7 1 .4.6-.3 1-.8 1-1.1 0-.2-.4-.4-1-.4-.5 0-1 .5-1 1.1zM417.8 256.7c.6.2 1.8.2 2.5 0 .6-.3.1-.5-1.3-.5-1.4 0-1.9.2-1.2.5zM391 264.1c0 .5.5.7 1 .4.6-.3 1-.8 1-1.1 0-.2-.4-.4-1-.4-.5 0-1 .5-1 1.1zM456 264c0 .5.5 1 1.1 1 .5 0 .7-.5.4-1-.3-.6-.8-1-1.1-1-.2 0-.4.4-.4 1zM524.7 275.7c-.4.3-.7 1.1-.7 1.7 0 .6.5.5 1.2-.2.6-.6.9-1.4.7-1.7-.3-.3-.9-.2-1.2.2zM424.6 289.3c-1.5 6.2-3.8 17.2-5.1 24.5-1.4 7.4-2.7 13.8-3 14.3-.4.5 0 .9.8.9 2 0 12.5-11.4 17.5-19.1 5-7.6 8.6-18 7.6-22.4-1.1-5.3-6.5-9.5-12.3-9.5-2.9 0-2.9 0-5.5 11.3zm10.2-4.1c2.4 2.4 1.4 9.3-2.3 16.5-3.6 6.8-7.5 12-6.1 8 .3-1 1.5-6.2 2.7-11.5 3.1-14.3 3.1-14.2 3.8-14.2.4 0 1.2.5 1.9 1.2zM444.5 285c.3.5.8 1 1.1 1 .2 0 .4-.5.4-1 0-.6-.5-1-1.1-1-.5 0-.7.4-.4 1zM490.5 298.7c-8.5 1.9-8.1 1.4-11.1 13.9-1.5 6.3-2.4 11.7-2.1 12 1.5 1.5 16.5-10 20.8-15.9 5.7-7.8 2.3-12.2-7.6-10zm2.6 7c-1.2 2.3-6 6.8-6.5 6.2-1.1-1.1.9-6.2 2.8-6.9 3.6-1.5 4.8-1.2 3.7.7zM441 303.4c0 .9.5 1.6 1 1.6.6 0 1-.4 1-.9 0-.6-.4-1.3-1-1.6-.5-.3-1 .1-1 .9zM360.1 319.6c0 1.1.3 1.4.6.6.3-.7.2-1.6-.1-1.9-.3-.4-.6.2-.5 1.3zM430.5 331c.3.5 1.1 1 1.6 1 .6 0 .7-.5.4-1-.3-.6-1.1-1-1.6-1-.6 0-.7.4-.4 1zM498.6 333.3c.3 1 .9 1.5 1.2 1.2.3-.3 0-1.1-.7-1.8-1-.9-1.1-.8-.5.6zM496 356.4c0 .2.8 1 1.8 1.7 1.5 1.3 1.6 1.2.3-.4s-2.1-2.1-2.1-1.3zM401.3 371.7c.9.2 2.3.2 3 0 .6-.3-.1-.5-1.8-.5-1.6 0-2.2.2-1.2.5zM455.1 384.9c-1 .6-1 1-.1 1.6 1.3.8 2.4.1 1.9-1.4-.3-.6-1-.7-1.8-.2zM494 387.1c0 .5.5.7 1 .4.6-.3 1-.8 1-1.1 0-.2-.4-.4-1-.4-.5 0-1 .5-1 1.1zM234 285.9c0 .5.7 1.1 1.4 1.4 1 .4 1.3.1.9-.9-.6-1.5-2.3-1.9-2.3-.5zM175.5 292.1c-2.2 4.2-1.5 4.4 1.2.3 1.2-1.9 1.8-3.4 1.3-3.4s-1.7 1.4-2.5 3.1zM217 374c-.8.5-1.2 1.2-.9 1.5.4.3 1.2-.1 1.9-1 1.4-1.7 1.1-1.9-1-.5zM319.1 279.6c0 1.1.3 1.4.6.6.3-.7.2-1.6-.1-1.9-.3-.4-.6.2-.5 1.3zM274.5 295c-.3.5-.1 1 .4 1 .6 0 1.1-.5 1.1-1 0-.6-.2-1-.4-1-.3 0-.8.4-1.1 1zM248.2 322c0 1.9.2 2.7.5 1.7.2-.9.2-2.5 0-3.5-.3-.9-.5-.1-.5 1.8zM275.5 334.1c-.4.6-.5 1.2-.2 1.5.2.3.7-.2 1-1.1.7-1.7.1-2-.8-.4zM277.5 387c-.3.6.1.7.9.4 1.8-.7 2.1-1.4.7-1.4-.6 0-1.3.4-1.6 1zM330.7 284.7c-1 .9-.9 2.3.2 2.3.5 0 1.1-.7 1.5-1.5.5-1.5-.5-2-1.7-.8zM312 379c0 .5.5 1 1.1 1 .5 0 .7-.5.4-1-.3-.6-.8-1-1.1-1-.2 0-.4.4-.4 1zM122.3 304.9c-1.9 3.3-4 4.3-2.8 1.3.3-1-.8-.3-2.8 1.6-1.8 1.8-3.7 2.9-4 2.5-1.2-1.2-4.1-1.2-5.4-.1-1.8 1.5-4.3-.8-4.3-3.9 0-1.3-.4-2.2-.9-1.9-.5.4-1.3 5.6-1.7 11.7-.6 10-.9 11.1-2.8 11.9-1.6.6-2.5.3-3.8-1.3-1-1.2-1.8-1.7-1.8-1 0 .6.5 1.5 1 1.8.6.3 1 1 1 1.6 0 2-2.6.7-8.4-4.3-11.4-9.6-11.4-9.4-.2 2.7 4.5 4.9 4.7 6.4.4 3.2-1.8-1.3-5.1-3.4-7.3-4.7l-4-2.3 3 3.2c1.6 1.8 3 3.7 3 4.4 0 .7.5 2 1.1 3.1 1 1.6 2 1.8 7.1 1.4 11.6-.8 23.2-8.9 28.6-19.9 1.5-3.1 3.9-7.4 5.3-9.4 1.4-2.1 2.3-4 2-4.3-.3-.2-1.3.9-2.3 2.7z"/></svg>